<?xml version="1.0" encoding="UTF-8" standalone="no"?>
<!-- Generator: Adobe Illustrator 19.0.0, SVG Export Plug-In . SVG Version: 6.00 Build 0)  -->

<svg
   version="1.1"
   id="Layer_1"
   x="0px"
   y="0px"
   viewBox="0 0 495.79999 462.04999"
   xml:space="preserve"
   sodipodi:docname="email-message-svgrepo-com.svg"
   width="36.725925"
   height="34.225925"
   inkscape:version="1.1.2 (0a00cf5339, 2022-02-04)"
   xmlns:inkscape="http://www.inkscape.org/namespaces/inkscape"
   xmlns:sodipodi="http://sodipodi.sourceforge.net/DTD/sodipodi-0.dtd"
   xmlns="http://www.w3.org/2000/svg"
   xmlns:svg="http://www.w3.org/2000/svg"><defs
   id="defs59" /><sodipodi:namedview
   id="namedview57"
   pagecolor="#ffffff"
   bordercolor="#666666"
   borderopacity="1.0"
   inkscape:pageshadow="2"
   inkscape:pageopacity="0.0"
   inkscape:pagecheckerboard="0"
   showgrid="false"
   scale-x="13.5"
   inkscape:zoom="0.96875"
   inkscape:cx="255.48387"
   inkscape:cy="251.87097"
   inkscape:window-width="1360"
   inkscape:window-height="731"
   inkscape:window-x="0"
   inkscape:window-y="0"
   inkscape:window-maximized="1"
   inkscape:current-layer="Layer_1"
   fit-margin-top="-3.7"
   fit-margin-left="-1.2"
   fit-margin-right="0"
   fit-margin-bottom="0" />
<g
   id="g6"
   style="fill:#1a5fb4"
   transform="translate(-16.2,-49.95)">
	<g
   id="g4"
   style="fill:#1a5fb4">
		<path
   d="M 500.599,157.901 435.2,114.304 V 0 H 76.8 V 114.304 L 11.401,157.901 C 4.275,162.645 0,170.641 0,179.2 V 486.4 C 0,500.54 11.46,512 25.6,512 h 460.8 c 14.14,0 25.6,-11.46 25.6,-25.6 V 179.2 c 0,-8.559 -4.275,-16.555 -11.401,-21.299 z M 435.2,145.067 474.795,171.461 435.2,197.086 Z M 102.4,25.6 H 409.6 V 213.649 L 256,313.037 102.4,213.649 Z M 76.8,145.067 v 52.019 L 37.205,171.469 Z M 486.4,486.4 H 25.6 V 194.449 L 232.439,328.286 44.254,450.048 c -5.939,3.849 -7.637,11.776 -3.797,17.698 2.441,3.806 6.554,5.854 10.752,5.854 2.389,0 4.787,-0.674 6.938,-2.048 L 256,343.526 453.854,471.552 c 2.15,1.374 4.548,2.048 6.938,2.048 4.198,0 8.311,-2.048 10.761,-5.854 3.84,-5.922 2.133,-13.85 -3.797,-17.698 L 279.569,328.277 486.4,194.449 Z"
   id="path2"
   style="fill:#1a5fb4" />
	</g>
</g>
<g
   id="g12"
   style="fill:#1a5fb4"
   transform="translate(-16.2,-49.95)">
	<g
   id="g10"
   style="fill:#1a5fb4">
		<rect
   x="128"
   y="51.200001"
   width="256"
   height="25.6"
   id="rect8"
   style="fill:#1a5fb4" />
	</g>
</g>
<g
   id="g18"
   style="fill:#1a5fb4"
   transform="translate(-16.2,-49.95)">
	<g
   id="g16"
   style="fill:#1a5fb4">
		<rect
   x="128"
   y="102.4"
   width="256"
   height="25.6"
   id="rect14"
   style="fill:#1a5fb4" />
	</g>
</g>
<g
   id="g24"
   style="fill:#1a5fb4"
   transform="translate(-16.2,-49.95)">
	<g
   id="g22"
   style="fill:#1a5fb4">
		<rect
   x="128"
   y="153.60001"
   width="128"
   height="25.6"
   id="rect20"
   style="fill:#1a5fb4" />
	</g>
</g>
<g
   id="g26"
   transform="translate(-16.2,-49.95)">
</g>
<g
   id="g28"
   transform="translate(-16.2,-49.95)">
</g>
<g
   id="g30"
   transform="translate(-16.2,-49.95)">
</g>
<g
   id="g32"
   transform="translate(-16.2,-49.95)">
</g>
<g
   id="g34"
   transform="translate(-16.2,-49.95)">
</g>
<g
   id="g36"
   transform="translate(-16.2,-49.95)">
</g>
<g
   id="g38"
   transform="translate(-16.2,-49.95)">
</g>
<g
   id="g40"
   transform="translate(-16.2,-49.95)">
</g>
<g
   id="g42"
   transform="translate(-16.2,-49.95)">
</g>
<g
   id="g44"
   transform="translate(-16.2,-49.95)">
</g>
<g
   id="g46"
   transform="translate(-16.2,-49.95)">
</g>
<g
   id="g48"
   transform="translate(-16.2,-49.95)">
</g>
<g
   id="g50"
   transform="translate(-16.2,-49.95)">
</g>
<g
   id="g52"
   transform="translate(-16.2,-49.95)">
</g>
<g
   id="g54"
   transform="translate(-16.2,-49.95)">
</g>
</svg>
