<svg xmlns="http://www.w3.org/2000/svg" viewBox="0 0 555 347" {...props}>
      <defs>
        <style>{".cls-1{fill:#00afef}.cls-2{fill:#00377c}"}</style>
      </defs>
      <g id="Layer_2" data-name="Layer 2">
        <g id="Layer_1-2" data-name="Layer 1">
          <path
            className="cls-1"
            d="M233 142.4h291a31 31 0 0131 31 31 31 0 01-31 31H233v-62z"
          />
          <path
            className="cls-2"
            d="M233 15h217a31.36 31.36 0 0131.36 31.36A31.36 31.36 0 01450 77.74H233V15zM233 269.26h217a31.36 31.36 0 0131.36 31.36A31.36 31.36 0 01450 332H233v-62.74z"
          />
          <circle className="cls-1" cx={173.5} cy={173.5} r={173.5} />
          <path
            className="cls-2"
            d="M184.87 40.93c3.25-.84 7 .26 9.85-1.73 4.7-3.25 9.15-6.87 14.08-10.62l-8.8-5.15c-.79-.45-1.46-.87-2.5-.28-8 4.54-16.31 8.7-24 14 3.25 3.15 6.81 4.94 11.37 3.78zM135.18 47.07c6.94-1.83 13.87-3.67 21-5.57-1.41-2.46-2.77-4.52-3.81-6.71-.87-1.81-1.9-2-3.62-1.26-4.14 1.83-8.31 2.7-12.45-.07-.57-.39-1.25-.83-1.91-.08-2.72 3.11-6.37 5-9.88 7.81 3.12 1.84 5.93 3.5 8.76 5.13.57.34 1.13.95 1.91.75zM333.4 161.76c-.82-.26-.53-1-.61-1.54-.63-4.67-1.09-9.37-1.88-14a155 155 0 00-23.13-58.72c-.55-.85-.91-1.9-2.3-1.42-6.21 2.14-12.75 2.26-19.14 2.35-6.94.09-11.73 2.29-14.57 8.91-1.6 3.72-3.81 3.89-7.35 1.59a14.45 14.45 0 01-1.64-1.4c-5-4.54-10-9.16-15.11-13.58a12.33 12.33 0 01-4.31-6.81C241.09 67.31 236.78 58.71 228 53a17.72 17.72 0 01-1.83-1.64 3.77 3.77 0 00-1.85-1c-4-.77-8-1.61-12.06-2.36-.7-.13-1.89-.63-1.9.68 0 2.73-1 5.42 1.74 7.9 6.35 5.82 12.62 11.75 18 18.5 1.14 1.42 1.27 1.86-.47 3.09-4.34 3.06-8.59 3-13.13.79-1.1-.55-2.26-1-3.39-1.43-5.45-2.27-5.45-2.27-5.44-8.11 0-1.09.27-2.11-1.27-2.68-3.82-1.4-7.56-3.05-11.43-4.64-1.28 5.49-2.66 10.74-3.67 16.06-.39 2-1.37 2.67-3.16 3-2.81.52-5.59 1.26-8.4 1.83-1.13.23-1.92.51-1.72 1.94.36 2.54.59 5.1.88 7.64.11 1 .68 1.34 1.62 1.51 4.54.81 9.09 1.59 13.58 2.59 1.58.35 1.89-.13 2.11-1.51.67-4.25 1.48-8.48 2.25-12.71.13-.75-.05-2 1.13-1.79 4.62.87 9.78.25 13.78 2.59a22.22 22.22 0 0013.71 3.07 3 3 0 013.46 2.21 56.31 56.31 0 0015.76 22c2 1.77 3.55 4.09 5.68 5.63 3.53 2.54 3.2 5.67 2.27 9.19-.33 1.27-.88 1.63-2.12 1.43-2.64-.41-5.28-.85-7.93-1-2.1-.12-4.25-1.25-6.33-.21-13.65 6.82-28.33 12.21-36.7 26.41a27.52 27.52 0 01-3.93 4.72 18 18 0 00-4.7 9.09c-1.16 5.6-1.68 5.82-7.28 5.06a8.34 8.34 0 01-2.3-.78c-3.08-1.38-6.15-2.8-9.21-4.21-.93-.43-1.76-.85-2.86-.29-3.2 1.61-6.46 3.09-9.7 4.62-.74.36-1.44.61-1.13 1.79 1 3.76 1.81 7.55 2.71 11.33 3-5 7.21-6.57 12.47-5.94a1.08 1.08 0 00.31 0c1.75-.34 2.06.54 1.91 2.07-.26 2.55-.28 5.12-.57 7.67-.16 1.42.33 2.18 1.66 2.34a14.48 14.48 0 0110.65 7c2 3.12 4.32 3.46 7.72 2.33s6.74-2.6 10.69-2.06c9.27 1.29 18.16 4.91 27.3 5.7s13.83 5.94 18.64 12a39.52 39.52 0 0012.23 10c6.11 3.34 12 7.14 18.06 10.5 2.08 1.15 2.08 2 1 3.94q-7.71 14.32-15.07 28.83a7.82 7.82 0 01-4.1 3.83c-4.49 2-8.88 4.19-13.39 6.12a5.78 5.78 0 00-3.55 3.8c-1.58 4.75-3.53 9.38-5.14 14.13a7.64 7.64 0 01-3.25 4.21c-7.62 5-15.19 10.09-22.77 15.17-.83.56-1.9.91-2.21 2-.86 3.08-1.69 6.18-2.63 9.59A154.13 154.13 0 00262.25 305a156.54 156.54 0 0050.33-53.5 153.79 153.79 0 0019.08-55.39c.44-3 .16-6.27 1.74-9.1v-3.08c-.43-.4-.28-.93-.32-1.42V179c.08-.62-.22-1.31.32-1.86v-8c-.6-.72-.2-1.57-.32-2.36.09-.65-.23-1.37.32-1.95z"
          />
          <path
            className="cls-2"
            d="M91.83 64.5c8.16-.68 16-2.24 22.76-7.25 2-1.48 4-1.43 6.32-.74 4.1 1.23 8.09 3.19 12.44 3.15 6.46-.1 12.91-.64 19.37-.88a4.2 4.2 0 003.95-2.27c1.74-3 3.73-5.88 5.52-8.86a2.49 2.49 0 013-1.33c4.13.59 8.2 1.87 12.48 1.43 7.76-.82 15.51-1.6 23.27-2.24a4.76 4.76 0 003.63-1.85 57.41 57.41 0 0112.73-11.41 12.48 12.48 0 019.95-2.05c4.8.81 9.66 2.48 14.75.67a3.8 3.8 0 00-.79-.64A160.75 160.75 0 00199 17.57c-3.86-.6-7.84-.43-11.58-1.79h-1.85c-.36 1-1.17.5-1.82.53s-1.43.3-1.87-.53H172c-.66.9-1.61.55-2.48.57h-1.85c-.65 0-1.46.44-1.83-.55H164c-.36 1-1.21.53-1.85.61-4.17.54-8.37.89-12.51 1.6a155.64 155.64 0 00-70.42 30.81A149.48 149.48 0 0054.34 73c1.44-.39 2.42-.64 3.38-.94 11.16-3.45 22.4-6.58 34.11-7.56zm105.62-41.35c1-.59 1.71-.17 2.5.28l8.85 5.15c-4.93 3.75-9.38 7.37-14.08 10.62-2.89 2-6.6.89-9.85 1.73-4.56 1.16-8.12-.63-11.4-3.82 7.67-5.26 15.93-9.42 23.98-13.96zm-63.09 10.23c.66-.75 1.34-.31 1.91.08 4.14 2.77 8.31 1.9 12.45.07 1.72-.77 2.75-.55 3.62 1.26 1 2.19 2.4 4.25 3.81 6.71-7.1 1.9-14 3.74-21 5.57-.78.2-1.34-.41-1.94-.75-2.83-1.63-5.64-3.29-8.76-5.13 3.55-2.76 7.19-4.7 9.91-7.81z"
          />
          <path
            className="cls-2"
            d="M169.54 16.36c.87 0 1.82.33 2.48-.57h-2.46a5.52 5.52 0 01-.02.57zM167.69 16.33a3.33 3.33 0 000-.55h-1.85c.39.99 1.16.5 1.85.55z"
          />
          <path
            className="cls-2"
            d="M167.69 16.33h1.85a5.52 5.52 0 000-.58h-1.85a3.33 3.33 0 010 .58zM183.75 16.31a3.09 3.09 0 010-.53h-1.85c.42.83 1.16.61 1.85.53z"
          />
          <path
            className="cls-2"
            d="M183.75 16.31c.65 0 1.46.5 1.82-.53h-1.84a3.09 3.09 0 00.02.53zM188.16 245.25c-1.84-2.82-3.19-5.95-4.87-8.88a3.47 3.47 0 01-.06-3.68c2.94-6 5.7-12 8.7-17.95.91-1.81.53-2.57-1.32-2.83-6.25-.85-10.87-4.32-14.79-9-1-1.17-2.24-2.12-3.22-3.3a8.16 8.16 0 00-5-2.71c-6.81-1.45-13.59-3-20.41-4.47a5.29 5.29 0 01-4.23-3.34c-2.13-4.9-4.56-9.66-6.87-14.48a47.88 47.88 0 00-.52 7.15c0 .87.72 2.31-.85 2.51-1.22.16-2.7.59-3.64-.87-.27-.42-.62-.81-.93-1.22-6.57-8.91-13.11-17.84-19.73-26.72a6 6 0 01-1.3-3.93c.07-6.78 0-13.55.06-20.33a8.5 8.5 0 00-1.35-4.89c-3.76-6-7.42-12-11.12-18-4.2-6.83-4.2-6.83-12-5.28-11.17 2.23-22.38 4.1-33.85 3.33a6.22 6.22 0 01-3.5-.79c-2.41-1.72-4.93-3.3-7.66-5.09l11.15-9-8.53 2c-.3.07-.6.12-.91.17a3.69 3.69 0 00-2.71 2.17C19.22 130.85 12.68 168.28 22 207.37c14.08 59.46 51.14 98.63 109.29 117.3 20.25 6.52 41.2 7.91 62.37 5.32 1.51-.18 2-.64 1.73-2.05a28.59 28.59 0 01-.32-3.06c-.36-7-1.86-13.95.38-21 2.13-6.72 3.46-13.69 5.18-20.54a5.48 5.48 0 00.22-3c-3.63-11.94-5.71-24.34-12.69-35.09z"
          />
        </g>
      </g>
    </svg>